<svg width="96" height="96" viewBox="0 0 96 96" fill="none" xmlns="http://www.w3.org/2000/svg">
<rect width="96" height="96" rx="48" fill="#10A3D9"/>
<path d="M55.9933 26C51.9075 26.0031 47.9031 27.1428 44.428 29.2916C40.953 31.4405 38.1442 34.5136 36.3158 38.1675C34.1407 37.8503 31.9235 37.9846 29.8027 38.5622C27.6818 39.1398 25.7027 40.1481 23.9887 41.5244C22.2748 42.9007 20.8629 44.6154 19.8409 46.5615C18.819 48.5076 18.2091 50.6435 18.0491 52.8357C17.8892 55.028 18.1827 57.2298 18.9113 59.3036C19.6399 61.3774 20.788 63.2789 22.284 64.8894C23.78 66.4999 25.5918 67.7848 27.6064 68.6641C29.621 69.5434 31.7952 69.9982 33.9933 70H55.9933C61.828 70 67.4238 67.6822 71.5496 63.5564C75.6754 59.4306 77.9933 53.8348 77.9933 48C77.9933 42.1652 75.6754 36.5695 71.5496 32.4437C67.4238 28.3179 61.828 26 55.9933 26ZM55.9933 66H33.9933C30.8107 66 27.7584 64.7357 25.508 62.4853C23.2576 60.2348 21.9933 57.1826 21.9933 54C21.9933 50.8174 23.2576 47.7652 25.508 45.5147C27.7584 43.2643 30.8107 42 33.9933 42C34.2683 42 34.5433 42 34.8158 42.0275C34.2688 43.9712 33.9921 45.9809 33.9933 48C33.9933 48.5304 34.204 49.0391 34.5791 49.4142C34.9541 49.7893 35.4628 50 35.9933 50C36.5237 50 37.0324 49.7893 37.4075 49.4142C37.7826 49.0391 37.9933 48.5304 37.9933 48C37.9933 44.4399 39.049 40.9598 41.0268 37.9997C43.0047 35.0397 45.8159 32.7325 49.105 31.3702C52.394 30.0078 56.0132 29.6513 59.5049 30.3459C62.9966 31.0404 66.2039 32.7547 68.7212 35.2721C71.2385 37.7894 72.9529 40.9967 73.6474 44.4884C74.3419 47.98 73.9855 51.5992 72.6231 54.8883C71.2607 58.1774 68.9536 60.9886 65.9935 62.9665C63.0335 64.9443 59.5533 66 55.9933 66Z" fill="white"/>
</svg>
